<svg width="122" height="37" viewBox="0 0 122 37" fill="none" xmlns="http://www.w3.org/2000/svg">
<path d="M0.597294 36.0281V1.01369H15.7535C18.8881 1.01369 21.5892 1.53057 23.8568 2.56433C26.1244 3.56474 27.8752 5.01534 29.109 6.91612C30.3428 8.8169 30.9598 11.0845 30.9598 13.7189C30.9598 16.32 30.3428 18.5709 29.109 20.4717C27.8752 22.3725 26.1244 23.8397 23.8568 24.8735C21.5892 25.8739 18.8881 26.3741 15.7535 26.3741H5.09914L8.70062 22.7226V36.0281H0.597294ZM8.70062 23.623L5.09914 19.7714H15.3033C17.8044 19.7714 19.6718 19.2378 20.9056 18.1707C22.1395 17.1036 22.7564 15.6197 22.7564 13.7189C22.7564 11.7848 22.1395 10.2842 20.9056 9.21706C19.6718 8.14996 17.8044 7.61641 15.3033 7.61641H5.09914L8.70062 3.76482V23.623ZM34.8047 36.0281V1.01369H42.858V23.8231L59.5649 1.01369H67.168V36.0281H59.1647V13.2687L42.4578 36.0281H34.8047ZM91.1423 36.6283C88.3745 36.6283 85.8068 36.1781 83.4391 35.2778C81.1048 34.3774 79.0707 33.1102 77.3366 31.4762C75.6359 29.8422 74.302 27.9247 73.335 25.7238C72.4013 23.5229 71.9344 21.122 71.9344 18.5209C71.9344 15.9198 72.4013 13.5188 73.335 11.3179C74.302 9.11702 75.6526 7.19957 77.3866 5.56556C79.1207 3.93156 81.1549 2.66437 83.4891 1.764C85.8234 0.863634 88.3578 0.41345 91.0923 0.41345C93.8601 0.41345 96.3944 0.863634 98.6954 1.764C101.03 2.66437 103.047 3.93156 104.748 5.56556C106.482 7.19957 107.832 9.11702 108.8 11.3179C109.767 13.4855 110.25 15.8865 110.25 18.5209C110.25 21.122 109.767 23.5396 108.8 25.7739C107.832 27.9748 106.482 29.8922 104.748 31.5262C103.047 33.1269 101.03 34.3774 98.6954 35.2778C96.3944 36.1781 93.8767 36.6283 91.1423 36.6283ZM91.0923 29.7255C92.6596 29.7255 94.0935 29.4587 95.394 28.9252C96.7279 28.3916 97.8951 27.6246 98.8955 26.6242C99.8959 25.6238 100.663 24.44 101.196 23.0728C101.763 21.7055 102.047 20.1882 102.047 18.5209C102.047 16.8535 101.763 15.3362 101.196 13.969C100.663 12.6018 99.8959 11.418 98.8955 10.4176C97.9284 9.41715 96.7779 8.65016 95.4441 8.11661C94.1102 7.58306 92.6596 7.31628 91.0923 7.31628C89.525 7.31628 88.0744 7.58306 86.7405 8.11661C85.44 8.65016 84.2895 9.41715 83.2891 10.4176C82.2887 11.418 81.505 12.6018 80.9381 13.969C80.4045 15.3362 80.1378 16.8535 80.1378 18.5209C80.1378 20.1549 80.4045 21.6722 80.9381 23.0728C81.505 24.44 82.272 25.6238 83.239 26.6242C84.2395 27.6246 85.4066 28.3916 86.7405 28.9252C88.0744 29.4587 89.525 29.7255 91.0923 29.7255ZM116.216 36.4282C114.882 36.4282 113.732 35.9781 112.764 35.0777C111.831 34.144 111.364 32.9601 111.364 31.5262C111.364 30.0923 111.831 28.9418 112.764 28.0748C113.732 27.1744 114.882 26.7243 116.216 26.7243C117.583 26.7243 118.734 27.1744 119.667 28.0748C120.601 28.9418 121.068 30.0923 121.068 31.5262C121.068 32.9601 120.601 34.144 119.667 35.0777C118.734 35.9781 117.583 36.4282 116.216 36.4282Z" fill="#1E1E1E"/>
</svg>
